# xmcd
#
# Track frame offsets: 
#        150
#        10278
#        23551
#        35474
#        46756
#        59214
#        68710
#        79742
#        93276
#        104319
#        113946
#        126065
#        138870
#        153126
#        161654
#        173303
#        186382
#        195406
#        209486
#        219758
#
# Disc length: 3081 seconds
#
# Revision: 0
# Processed by: cddbd v1.5.2PL0 Copyright (c) Steve Scherf et al.
# Submitted via: ExactAudioCopy v1.0b3
#
DISCID=020c0714
DTITLE=Yvonne DeVaney - Yvonne DeVaney Collection
DYEAR=1900
DGENRE=Country
TTITLE0=Ten Million and Two
TTITLE1=Sittin' In The Amen Seat
TTITLE2=Thank Heaven For Sending Me You
TTITLE3=Let Him Walk This Troubled Earth Again
TTITLE4=I'd Like To Shake The Hand Of The Girl Who Finally Won
TTITLE5=How Long Darling?
TTITLE6=A'lls Right With The World
TTITLE7=There's Gonna Be Love Everywhere
TTITLE8=Teach Me To Live Without You
TTITLE9=I'm Just Fool Enough
TTITLE10=Just For A Moment
TTITLE11=God Made An Angel When He Made Me You
TTITLE12=Wine From My Table
TTITLE13=Tell Me A Lie
TTITLE14=Forever And One Day
TTITLE15=Mary Magdalena
TTITLE16=Take Me Back Into Your World
TTITLE17=One Tear Drop To Long
TTITLE18=Anything To Stop The Hurt
TTITLE19=How Many Times Jesus
EXTD=
EXTT0=
EXTT1=
EXTT2=
EXTT3=
EXTT4=
EXTT5=
EXTT6=
EXTT7=
EXTT8=
EXTT9=
EXTT10=
EXTT11=
EXTT12=
EXTT13=
EXTT14=
EXTT15=
EXTT16=
EXTT17=
EXTT18=
EXTT19=
PLAYORDER=
